<svg data-v-fde0c5aa="" xmlns="http://www.w3.org/2000/svg" viewBox="0 0 300 300" class="iconLeft"><!----><defs data-v-fde0c5aa=""><!----></defs><rect data-v-fde0c5aa="" fill="transparent" x="0" y="0" width="300px" height="300px" class="logo-background-square"></rect><defs data-v-fde0c5aa=""><!----></defs><g data-v-fde0c5aa="" id="6ef2a8dd-16ff-4598-b82a-a8ff71fa1093" fill="#000000" transform="matrix(2.7731691314720117,0,0,2.7731691314720117,127.91395560356166,123.15572196104686)"><path d="M1.15 12.02L1.15 12.02Q1.15 12.02 2.34 11.51L2.34 11.51L2.41 11.51Q2.66 12.41 3.44 12.41L3.44 12.41Q4.18 12.41 4.71 11.92L4.71 11.92Q5.13 11.53 5.25 11.04L5.25 11.04Q5.28 10.90 5.28 10.77L5.28 10.77Q5.28 10.45 5.08 10.25L5.08 10.25Q4.78 9.95 4.11 9.84L4.11 9.84Q3.25 9.70 2.81 9.32L2.81 9.32Q2.36 8.93 2.36 8.30L2.36 8.30Q2.36 8.07 2.42 7.80L2.42 7.80Q2.63 6.86 3.66 6.23L3.66 6.23Q4.38 5.78 5.17 5.78L5.17 5.78Q6.52 5.78 6.83 7.08L6.83 7.08L5.63 7.59L5.56 7.59Q5.40 6.95 4.90 6.95L4.90 6.95Q4.49 6.95 4.19 7.15L4.19 7.15Q3.83 7.39 3.73 7.83L3.73 7.83Q3.70 7.94 3.70 8.03L3.70 8.03Q3.70 8.30 3.92 8.43L3.92 8.43Q4.24 8.61 4.92 8.76L4.92 8.76Q5.77 8.95 6.21 9.37L6.21 9.37Q6.64 9.78 6.64 10.48L6.64 10.48Q6.64 10.77 6.57 11.12L6.57 11.12Q6.38 12.00 5.39 12.81L5.39 12.81Q4.46 13.58 3.17 13.58L3.17 13.58Q1.63 13.58 1.15 12.02ZM7.38 16.52L7.31 16.52L8.89 9.68Q9.21 8.25 9.91 7.36L9.91 7.36Q11.15 5.78 12.67 5.78L12.67 5.78Q14.17 5.78 14.69 7.36L14.69 7.36Q14.83 7.78 14.83 8.32L14.83 8.32Q14.83 8.91 14.66 9.68L14.66 9.68Q14.27 11.33 12.71 12.28L12.71 12.28L14.40 12.28L14.38 12.35L13.62 13.44L10.42 13.44L10.43 13.37L11.20 12.28Q12.16 11.70 12.58 11.16L12.58 11.16Q13.10 10.49 13.29 9.68L13.29 9.68Q13.48 8.84 13.48 8.31L13.48 8.31Q13.48 8.04 13.43 7.85L13.43 7.85Q13.19 6.95 12.40 6.95L12.40 6.95Q11.62 6.95 10.96 7.85L10.96 7.85Q10.55 8.41 10.26 9.68L10.26 9.68L8.82 15.90L7.38 16.52ZM18.59 12.62L17.83 13.71Q16.40 13.71 16.40 12.69L16.40 12.69Q16.40 12.49 16.45 12.25L16.45 12.25L18.48 3.46L19.93 2.84L20.00 2.84L17.82 12.25Q17.75 12.55 18.08 12.55L18.08 12.55L18.61 12.55L18.59 12.62ZM22.36 3.82L22.36 3.82Q22.44 3.47 22.74 3.23Q23.03 2.98 23.38 2.98Q23.73 2.98 23.91 3.23L23.91 3.23Q24.04 3.40 24.04 3.62L24.04 3.62Q24.04 3.70 24.01 3.82L24.01 3.82Q23.91 4.18 23.63 4.41L23.63 4.41Q23.33 4.66 22.98 4.66L22.98 4.66Q22.64 4.66 22.46 4.40L22.46 4.40Q22.33 4.24 22.33 4.04L22.33 4.04Q22.33 3.94 22.36 3.82ZM22.70 12.62L21.93 13.71Q20.50 13.71 20.50 12.69L20.50 12.69Q20.50 12.49 20.56 12.25L20.56 12.25L21.94 6.26L23.38 5.65L23.45 5.65L21.92 12.25Q21.85 12.55 22.18 12.55L22.18 12.55L22.71 12.55L22.70 12.62ZM27.32 12.62L26.56 13.71Q25.13 13.71 25.13 12.69L25.13 12.69Q25.13 12.49 25.18 12.25L25.18 12.25L26.38 7.08L24.62 7.08L24.64 7.01L25.40 5.92L26.65 5.92L27.21 3.46L28.66 2.84L28.72 2.84L28.01 5.92L29.77 5.92L29.76 5.99L28.99 7.08L27.75 7.08L26.55 12.25Q26.48 12.55 26.81 12.55L26.81 12.55L27.34 12.55L27.32 12.62ZM32.48 12.62L31.71 13.71Q30.28 13.71 30.28 12.69L30.28 12.69Q30.28 12.49 30.34 12.25L30.34 12.25L31.53 7.08L29.78 7.08L29.79 7.01L30.56 5.92L31.80 5.92L32.37 3.46L33.81 2.84L33.88 2.84L33.17 5.92L34.92 5.92L34.91 5.99L34.15 7.08L32.90 7.08L31.71 12.25Q31.64 12.55 31.96 12.55L31.96 12.55L32.49 12.55L32.48 12.62ZM40.54 10.86L40.61 10.86Q40.33 11.52 39.96 12.00L39.96 12.00Q38.73 13.58 37.19 13.58L37.19 13.58Q35.70 13.58 35.18 12.00L35.18 12.00Q35.04 11.59 35.04 11.05L35.04 11.05Q35.04 10.42 35.22 9.68L35.22 9.68Q35.53 8.29 36.24 7.36L36.24 7.36Q37.46 5.78 39.00 5.78L39.00 5.78Q40.17 5.78 40.72 6.51L40.72 6.51Q41.15 7.08 41.15 7.73L41.15 7.73Q41.15 7.98 41.09 8.23L41.09 8.23Q40.84 9.28 39.96 10.06L39.96 10.06Q39.08 10.83 37.80 10.83L37.80 10.83L37.27 10.83L37.29 10.76L38.05 9.67Q38.79 9.67 39.20 9.27L39.20 9.27Q39.60 8.88 39.76 8.22L39.76 8.22Q39.81 8.05 39.81 7.90L39.81 7.90Q39.81 7.57 39.62 7.33L39.62 7.33Q39.35 6.95 38.73 6.95L38.73 6.95Q37.89 6.95 37.29 7.85L37.29 7.85Q36.85 8.50 36.59 9.68L36.59 9.68Q36.39 10.53 36.39 11.05L36.39 11.05Q36.39 11.32 36.44 11.51L36.44 11.51Q36.70 12.41 37.47 12.41L37.47 12.41Q38.25 12.41 38.90 11.51L38.90 11.51L40.54 10.86ZM42.07 13.71L42 13.71L42.93 9.68Q43.26 8.25 43.96 7.36L43.96 7.36Q45.19 5.78 46.71 5.78L46.71 5.78L47.63 5.78L47.61 5.85L46.84 6.95L46.44 6.95Q45.66 6.95 45.00 7.85L45.00 7.85Q44.59 8.41 44.30 9.68L44.30 9.68L43.51 13.10L42.07 13.71Z"></path></g><defs data-v-fde0c5aa=""><linearGradient data-v-fde0c5aa="" gradientTransform="rotate(25)" id="606b6ddd-dccc-4456-99f3-be18b5a07f79" x1="0%" y1="0%" x2="100%" y2="0%"><stop data-v-fde0c5aa="" offset="0%" stop-color="#01648B" stop-opacity="1"></stop><stop data-v-fde0c5aa="" offset="100%" stop-color="#5BD0A4" stop-opacity="1"></stop></linearGradient></defs><g data-v-fde0c5aa="" id="76aa1d8d-6222-444b-aa8c-320b942156a1" stroke="none" fill="url(#606b6ddd-dccc-4456-99f3-be18b5a07f79)" transform="matrix(2.440721876207405,0,0,2.440721876207405,40,110.94722912628082)"><path d="M12.289 5.343v19.9L1 13.954V5.343h11.289m1-1H0v10.026l13.289 13.289V4.343zM31 5.343v8.612L19.711 25.243v-19.9H31m1-1H18.711v23.315L32 14.369V4.343z"></path></g><!----></svg>