<svg data-v-423bf9ae="" xmlns="http://www.w3.org/2000/svg" viewBox="0 0 279.7779738589326 60" class="font"><!----><!----><defs data-v-423bf9ae=""><linearGradient data-v-423bf9ae="" gradientTransform="rotate(25)" id="7666faeb-2bb0-48e3-8afc-1c64bbf2e04c" x1="0%" y1="0%" x2="100%" y2="0%"><stop data-v-423bf9ae="" offset="0%" style="stop-color: rgb(73, 36, 126); stop-opacity: 1;"></stop><stop data-v-423bf9ae="" offset="100%" style="stop-color: rgb(170, 73, 199); stop-opacity: 1;"></stop></linearGradient></defs><g data-v-423bf9ae="" id="c712b5d7-646c-4ae6-8691-48df52cf0077" fill="url(#7666faeb-2bb0-48e3-8afc-1c64bbf2e04c)" transform="matrix(6.0544899243017465,0,0,6.0544899243017465,-3.995965579301071,-17.558020404201905)"><path d="M10.22 7.81L10.22 7.81Q10.22 9.32 9.64 10.46Q9.06 11.59 7.98 12.20Q6.90 12.81 5.43 12.81L5.43 12.81Q3.95 12.81 2.87 12.21Q1.80 11.61 1.23 10.47Q0.66 9.33 0.66 7.81L0.66 7.81Q0.66 5.50 1.93 4.20Q3.19 2.90 5.45 2.90L5.45 2.90Q6.92 2.90 8.00 3.48Q9.08 4.07 9.65 5.18Q10.22 6.30 10.22 7.81ZM8.89 7.81L8.89 7.81Q8.89 6.02 7.99 4.99Q7.09 3.96 5.45 3.96L5.45 3.96Q3.79 3.96 2.89 4.98Q1.99 5.99 1.99 7.81L1.99 7.81Q1.99 9.63 2.90 10.69Q3.81 11.75 5.43 11.75L5.43 11.75Q7.10 11.75 7.99 10.72Q8.89 9.69 8.89 7.81ZM21.03 5.28L18.92 12.67L17.49 12.67L16.19 7.44L15.95 6.29Q15.89 6.60 15.76 7.17Q15.63 7.75 14.36 12.67L14.36 12.67L12.94 12.67L10.87 5.28L12.09 5.28L13.34 10.30Q13.38 10.47 13.63 11.66L13.63 11.66L13.75 11.15L15.29 5.28L16.61 5.28L17.90 10.36L18.22 11.66L18.43 10.71L19.83 5.28L21.03 5.28ZM28.16 9.24L22.89 9.24Q22.89 10.51 23.41 11.20Q23.94 11.89 24.95 11.89L24.95 11.89Q25.75 11.89 26.23 11.57Q26.71 11.25 26.89 10.75L26.89 10.75L27.97 11.06Q27.30 12.81 24.95 12.81L24.95 12.81Q23.31 12.81 22.45 11.83Q21.59 10.86 21.59 8.93L21.59 8.93Q21.59 7.10 22.45 6.12Q23.31 5.14 24.90 5.14L24.90 5.14Q28.16 5.14 28.16 9.07L28.16 9.07L28.16 9.24ZM22.90 8.29L26.89 8.29Q26.79 7.12 26.30 6.59Q25.81 6.05 24.88 6.05L24.88 6.05Q23.99 6.05 23.46 6.65Q22.94 7.25 22.90 8.29L22.90 8.29ZM29.49 7.81L29.49 7.81Q29.49 5.47 30.75 4.18Q32.01 2.90 34.28 2.90L34.28 2.90Q35.88 2.90 36.88 3.44Q37.88 3.98 38.42 5.17L38.42 5.17L37.17 5.54Q36.76 4.72 36.04 4.34Q35.32 3.96 34.25 3.96L34.25 3.96Q32.58 3.96 31.70 4.97Q30.82 5.98 30.82 7.81L30.82 7.81Q30.82 9.64 31.75 10.69Q32.69 11.75 34.34 11.75L34.34 11.75Q35.29 11.75 36.10 11.46Q36.92 11.18 37.43 10.68L37.43 10.68L37.43 8.95L34.55 8.95L34.55 7.85L38.63 7.85L38.63 11.18Q37.86 11.96 36.75 12.38Q35.64 12.81 34.34 12.81L34.34 12.81Q32.83 12.81 31.74 12.21Q30.65 11.61 30.07 10.48Q29.49 9.34 29.49 7.81ZM46.87 8.97L46.87 8.97Q46.87 10.91 46.02 11.86Q45.17 12.81 43.54 12.81L43.54 12.81Q41.92 12.81 41.09 11.82Q40.26 10.83 40.26 8.97L40.26 8.97Q40.26 5.14 43.58 5.14L43.58 5.14Q45.27 5.14 46.07 6.07Q46.87 7.01 46.87 8.97ZM45.58 8.97L45.58 8.97Q45.58 7.44 45.13 6.74Q44.67 6.05 43.60 6.05L43.60 6.05Q42.52 6.05 42.04 6.76Q41.56 7.46 41.56 8.97L41.56 8.97Q41.56 10.43 42.03 11.17Q42.51 11.90 43.52 11.90L43.52 11.90Q44.63 11.90 45.11 11.19Q45.58 10.48 45.58 8.97Z"></path></g><!----><!----></svg>